PathFileType	4	(X/Y/Z)	2014001\dynamic\2014001_C3_03.trc
DataRate	CameraRate	NumFrames	NumMarkers	Units	OrigDataRate	OrigDataStartFrame	OrigNumFrames
100.000000	100.000000	4	52	mm	100.000000	137	183
Frame#	Time	L_IAS			L_IPS			R_IPS			R_IAS			L_FTC			L_FLE			L_FME			L_FAX			L_TTC			L_FAL			L_TAM			L_FCC			L_FM1			L_FM2			L_FM5			R_FTC			R_FLE			R_FME			R_FAX			R_TTC			R_FAL			R_TAM			R_FCC			R_FM1			R_FM2			R_FM5			CV7			TV10			SXS			SJN			L_SIA			L_SRS			L_SAA			L_SAE			L_HLE			L_HME			L_UOA			L_RSP			L_UHE			L_HM2			L_HM5			R_SIA			R_SRS			R_SAA			R_SAE			R_HLE			R_HME			R_UOA			R_RSP			R_UHE			R_HM2			R_HM5			
		X1	Y1	Z1	X2	Y2	Z2	X3	Y3	Z3	X4	Y4	Z4	X5	Y5	Z5	X6	Y6	Z6	X7	Y7	Z7	X8	Y8	Z8	X9	Y9	Z9	X10	Y10	Z10	X11	Y11	Z11	X12	Y12	Z12	X13	Y13	Z13	X14	Y14	Z14	X15	Y15	Z15	X16	Y16	Z16	X17	Y17	Z17	X18	Y18	Z18	X19	Y19	Z19	X20	Y20	Z20	X21	Y21	Z21	X22	Y22	Z22	X23	Y23	Z23	X24	Y24	Z24	X25	Y25	Z25	X26	Y26	Z26	X27	Y27	Z27	X28	Y28	Z28	X29	Y29	Z29	X30	Y30	Z30	X31	Y31	Z31	X32	Y32	Z32	X33	Y33	Z33	X34	Y34	Z34	X35	Y35	Z35	X36	Y36	Z36	X37	Y37	Z37	X38	Y38	Z38	X39	Y39	Z39	X40	Y40	Z40	X41	Y41	Z41	X42	Y42	Z42	X43	Y43	Z43	X44	Y44	Z44	X45	Y45	Z45	X46	Y46	Z46	X47	Y47	Z47	X48	Y48	Z48	X49	Y49	Z49	X50	Y50	Z50	X51	Y51	Z51	X52	Y52	Z52	

138	1.37	382.7203674316407	856.5116577148442	1294.534790039063	300.304168701172	900.4265747070317	1120.720947265625	209.4627838134767	898.0109252929692	1121.9853515625	144.9095458984376	875.4514160156255	1306.237182617188	436.5420532226565	776.0718383789067	1202.389526367188	430.8104553222659	434.2483825683596	1135.449951171875	320.2849731445314	400.414245605469	1173.938842773438	434.641052246094	396.1628417968752	1084.2001953125	400.2109069824221	337.5333251953126	1126.984741210938	388.1539306640627	171.2689666748047	854.1630859375005	306.2429504394532	159.2419586181641	888.8185424804692	332.9886169433595	178.1357421875001	805.3756713867192	311.8371887207032	42.30168533325197	907.5073242187505	372.215789794922	41.8985939025879	913.1528320312505	410.254821777344	59.52910614013675	870.804321289063	79.76107025146487	776.1015014648442	1225.917724609375	120.2706680297852	444.0020141601565	1352.831665039063	238.9305267333986	440.6144104003909	1366.98486328125	117.7879257202149	377.0569763183595	1345.453369140625	169.1556396484376	379.1542358398439	1409.823364257813	168.8738861083985	66.17836761474612	1328.970581054688	251.0863647460939	84.8044128417969	1364.864990234375	226.8710327148439	25.28898811340333	1288.7626953125	239.4433135986329	29.47715377807619	1475.960327148438	175.9205932617188	36.88524246215822	1478.741821289063	131.5281829833985	23.66257667541505	1420.202514648438	243.9807128906251	1366.221435546875	1161.184936523438	259.5662231445314	1135.866821289063	1095.484130859375	255.4460754394532	1140.146484375	1335.297485351563	245.5072631835939	1301.169189453125	1289.695190429688	353.8464355468751	1180.137573242188	1097.770751953125	337.1072998046876	1309.530883789063	1120.855346679688	442.7193298339846	1311.132690429688	1199.491943359375	422.9652404785159	1321.001586914063	1238.734252929688	520.9788818359377	1043.477294921875	1232.524047851563	452.3235473632815	1003.261352539063	1197.572387695313	503.3564453125002	1001.900085449219	1200.19970703125	457.6435241699221	836.1676635742192	1364.625610351563	532.478942871094	823.293823242188	1338.30029296875	454.9148864746096	769.607055664063	1417.742797851563	534.0760498046877	747.3037109375002	1356.239013671875	149.5483551025391	1172.693481445313	1085.297607421875	164.0267028808594	1295.958251953125	1117.6025390625	57.13074493408206	1289.1103515625	1185.663452148438	64.10351562500003	1292.227172851563	1235.882690429688	17.26948547363282	993.0212402343755	1156.196899414063	96.76905822753912	983.1799926757817	1138.557983398438	52.10384750366214	977.5957031250005	1127.302856445313	36.278133392334	774.7501831054692	1218.442260742188	-16.69271659851075	779.5912475585942	1156.759643554688	23.36104774475098	678.207702636719	1222.593872070313	-13.79075241088868	704.9402465820315	1131.85595703125	
139	1.38	381.0057067871095	858.0371093750005	1305.222778320313	298.3740539550782	901.4636840820317	1131.30859375	207.5962524414064	899.2213745117192	1132.882202148438	143.066390991211	876.4453735351567	1317.247802734375	434.3782043457034	776.4240112304692	1214.124755859375	431.1164245605471	433.3972778320315	1156.083251953125	320.7149658203126	399.5122680664065	1195.462280273438	435.2971496582034	396.0688781738284	1105.047729492188	400.6249694824221	336.7591857910157	1146.976318359375	388.3357849121096	177.1547088623047	870.230590820313	306.4118957519532	163.6238861083985	904.6462402343755	332.5720520019532	185.4531250000001	821.5827636718755	314.2142028808595	45.27673721313478	919.390014648438	374.328338623047	45.143367767334	924.2588500976567	411.6721801757815	65.92493438720706	882.8981933593755	78.09513854980472	777.2763671875005	1236.670532226563	119.5647354125977	443.5070495605471	1359.17919921875	238.5388031005861	440.0733032226565	1372.878051757813	117.2546997070313	376.6695556640626	1350.669555664063	168.7099304199219	377.9892883300782	1415.075317382813	169.1389770507813	66.39039611816409	1329.350463867188	251.4080657958986	84.65635681152347	1365.104858398438	226.8723602294923	25.42872428894044	1288.982666015625	240.2444763183595	28.84507942199708	1476.023681640625	176.3433532714844	36.95794677734376	1479.253784179688	131.5002746582032	24.1101760864258	1420.310913085938	242.0245666503907	1367.563720703125	1171.913452148438	257.1769409179689	1137.147216796875	1106.217041015625	254.2886657714845	1141.663452148438	1346.24072265625	244.2780609130861	1302.625244140625	1300.368896484375	351.2431640625001	1181.307983398438	1107.892456054688	334.8131713867189	1310.756958007813	1130.945068359375	440.9132385253909	1312.272094726563	1208.881713867188	421.5323486328127	1322.16552734375	1248.267456054688	518.5491333007815	1044.259765625	1238.840087890625	449.3016357421877	1004.912109375	1203.895629882813	500.2725524902346	1003.637573242188	1205.85693359375	458.7941589355471	832.764526367188	1365.870971679688	533.4495849609377	821.4856567382817	1337.69873046875	457.6007995605471	763.949890136719	1416.185546875	535.935729980469	744.9207763671877	1352.627563476563	146.5258941650391	1173.97265625	1097.06201171875	161.5880432128907	1297.238891601563	1128.883056640625	55.10737991333011	1290.710205078125	1197.858520507813	62.62794494628909	1293.916381835938	1247.937622070313	14.60898971557618	993.965454101563	1171.811157226563	93.87216949462893	983.8981323242192	1153.27490234375	49.04664993286136	978.0883178710942	1142.652709960938	34.36707687377931	776.793579101563	1237.279907226563	-19.17129516601563	780.4770507812505	1176.1376953125	21.83637428283692	680.1155395507815	1242.981567382813	-16.45452880859376	705.4959716796877	1152.361206054688	
140	1.39	379.5140380859376	859.6400756835942	1315.559448242188	296.435272216797	902.5762329101567	1141.666625976563	205.7453460693361	900.5432739257817	1143.5576171875	141.4399414062501	877.4358520507817	1328.075317382813	432.277526855469	776.8903808593755	1225.525634765625	431.2857666015627	432.7403259277346	1177.0625	320.8485717773439	399.0816650390627	1217.0673828125	435.7745361328127	396.0106506347659	1126.388793945313	400.7452392578127	336.2088928222657	1167.521484375	388.3490905761721	182.5672607421876	887.4340820312505	306.3849487304689	167.6787261962891	921.5108032226567	332.1217041015626	191.8187713623047	838.7855834960942	316.8255920410157	48.37169265747073	933.5652465820317	376.6832275390626	48.71216201782229	937.7088012695317	413.2671203613284	72.28900909423831	897.0219116210942	76.54677581787112	778.4926147460942	1247.178588867188	118.9066696166993	442.9925537109377	1364.843627929688	238.1788940429689	439.461120605469	1378.039794921875	116.7575378417969	376.2514953613282	1355.206665039063	168.3070526123047	376.8394775390626	1419.64892578125	169.3825988769532	66.54252624511722	1329.563354492188	251.6998138427736	84.55583953857425	1365.274658203125	226.9079589843751	25.49444007873537	1289.088989257813	240.8903198242189	28.40192031860353	1476.004150390625	176.6731872558594	37.1363983154297	1479.570556640625	131.5273895263672	24.46168136596681	1420.332275390625	240.1471557617189	1368.983642578125	1182.570556640625	254.8188934326173	1138.504760742188	1116.884155273438	253.2781677246095	1143.14794921875	1356.970458984375	243.1809844970704	1304.081420898438	1310.9326171875	348.6147460937501	1182.567016601563	1117.784301757813	332.5574340820314	1312.0810546875	1140.87841796875	439.1953125000002	1313.443115234375	1218.0625	420.204772949219	1323.346557617188	1257.61767578125	516.1964111328127	1045.110229492188	1245.100219726563	446.3870239257815	1006.572021484375	1210.252319335938	497.2580261230471	1005.448303222657	1211.531982421875	460.0342407226565	829.6745605468755	1366.923583984375	534.462585449219	820.0446777343755	1336.922241210938	460.3627624511721	758.6547851562502	1414.252319335938	537.792175292969	743.0073852539065	1348.787719726563	143.5420837402344	1175.352416992188	1108.739501953125	159.2080993652344	1298.625122070313	1140.075073242188	53.18269348144534	1292.356079101563	1210.016357421875	61.28740310668948	1295.64208984375	1259.952026367188	11.90172863006592	995.003051757813	1187.469970703125	90.894645690918	984.6296997070317	1168.000732421875	45.89496994018556	978.6030273437505	1158.075561523438	32.47331619262697	778.970825195313	1256.39794921875	-21.69965744018555	781.5081176757817	1195.857299804688	20.18843650817872	682.3078613281252	1263.888671875	-19.21290588378907	706.1604003906252	1173.366333007813	
141	1.4	378.2156372070314	861.318969726563	1325.59521484375	294.5187072753907	903.7752075195317	1151.833740234375	203.9301147460939	901.9765014648442	1154.030029296875	140.0128021240235	878.4472656250005	1338.7236328125	430.2538146972659	777.5044555664067	1236.630126953125	431.3240356445315	432.360778808594	1198.266235351563	320.6891479492189	399.1607055664065	1238.636474609375	436.065124511719	396.0669250488284	1148.069458007813	400.6169128417971	335.953338623047	1188.520874023438	388.2191162109377	187.3945007324219	905.7050170898442	306.2024230957032	171.3238677978516	939.3964233398442	331.6766052246095	197.1085662841798	856.9143066406255	319.5639648437501	51.46923446655276	950.0297851562505	379.1751098632814	52.46265792846683	953.5247192382817	414.9670410156252	78.38783264160159	913.1958007812505	75.11238098144534	779.750122070313	1257.442260742188	118.2761383056641	442.496765136719	1369.886474609375	237.8102569580079	438.8271179199221	1382.572631835938	116.2716217041016	375.8369750976564	1359.142211914063	167.9093322753907	375.7381896972657	1423.615234375	169.5805969238282	66.63970947265628	1329.649658203125	251.9386444091798	84.49884796142581	1365.411010742188	226.9553833007814	25.51375770568849	1289.093505859375	241.3789215087892	28.09459495544435	1475.9267578125	176.9101715087891	37.34183883666994	1479.734130859375	131.5815887451172	24.68707656860353	1420.290649414063	238.3504943847657	1370.475341796875	1193.150390625	252.5128021240236	1139.93505859375	1127.477416992188	252.4080657958986	1144.60107421875	1367.480346679688	242.2169647216798	1305.540649414063	1321.38525390625	345.9763488769532	1183.912963867188	1127.45849609375	330.3467712402345	1313.499755859375	1150.65869140625	437.565856933594	1314.651123046875	1227.031982421875	418.9890136718752	1324.553344726563	1266.785766601563	513.9289550781252	1046.0380859375	1251.294799804688	443.5949401855471	1008.241149902344	1216.635131835938	494.331481933594	1007.334838867188	1217.218505859375	461.344665527344	826.9309692382817	1367.794921875	535.4985351562502	818.9958496093755	1336.023559570313	463.1592407226565	753.7895507812502	1412.0048828125	539.6256103515627	741.5962524414065	1344.810791015625	140.6117553710938	1176.834228515625	1120.327392578125	156.8951110839844	1300.11181640625	1151.177001953125	51.36389923095706	1294.044555664063	1222.135620117188	60.0903129577637	1297.400512695313	1271.926147460938	9.156522750854496	996.1389160156255	1203.162109375	87.84690093994143	985.3788452148442	1182.721923828125	42.66450119018556	979.148559570313	1173.559692382813	30.61567115783693	781.2854003906255	1275.761962890625	-24.26416587829591	782.706909179688	1215.88330078125	18.43123054504395	684.810729980469	1285.27392578125	-22.05551147460938	706.9666137695315	1194.83544921875	
